ffmpeg version N-122740-g0a629df0a8-20260213 Copyright (c) 2000-2026 the FFmpeg developers
  built with gcc 15.2.0 (crosstool-NG 1.28.0.1_403899e)
  configuration: --prefix=/ffbuild/prefix --pkg-config-flags=--static --pkg-config=pkg-config --cross-prefix=x86_64-w64-mingw32- --arch=x86_64 --target-os=mingw32 --enable-gpl --enable-version3 --disable-debug --disable-w32threads --enable-pthreads --enable-iconv --enable-zlib --enable-libxml2 --enable-libvmaf --enable-fontconfig --enable-libharfbuzz --enable-libfreetype --enable-libfribidi --enable-vulkan --enable-libshaderc --enable-libvorbis --disable-libxcb --disable-xlib --disable-libpulse --enable-opencl --enable-gmp --enable-lzma --enable-liblcevc-dec --enable-amf --enable-libaom --enable-libaribb24 --enable-avisynth --enable-chromaprint --enable-libdav1d --enable-libdavs2 --enable-libdvdread --enable-libdvdnav --disable-libfdk-aac --enable-ffnvcodec --enable-cuda-llvm --enable-frei0r --enable-libgme --enable-libkvazaar --enable-libaribcaption --enable-libass --enable-libbluray --enable-libjxl --enable-libmp3lame --enable-libopus --enable-libplacebo --enable-librist --enable-libssh --enable-libtheora --enable-libvpx --enable-libwebp --enable-libzmq --enable-lv2 --enable-libvpl --enable-openal --enable-liboapv --enable-libopencore-amrnb --enable-libopencore-amrwb --enable-libopenh264 --enable-libopenjpeg --enable-libopenmpt --enable-librav1e --enable-librubberband --enable-schannel --enable-sdl2 --enable-libsnappy --enable-libsoxr --enable-libsrt --enable-libsvtav1 --enable-libtwolame --enable-libuavs3d --disable-libdrm --enable-vaapi --enable-libvidstab --enable-libvvenc --enable-whisper --enable-libx264 --enable-libx265 --enable-libxavs2 --enable-libxvid --enable-libzimg --enable-libzvbi --extra-cflags=-DLIBTWOLAME_STATIC --extra-cxxflags= --extra-libs=-lgomp --extra-ldflags=-pthread --extra-ldexeflags= --cc=x86_64-w64-mingw32-gcc --cxx=x86_64-w64-mingw32-g++ --ar=x86_64-w64-mingw32-gcc-ar --ranlib=x86_64-w64-mingw32-gcc-ranlib --nm=x86_64-w64-mingw32-gcc-nm --extra-version=20260213
  libavutil      60. 25.100 / 60. 25.100
  libavcodec     62. 23.103 / 62. 23.103
  libavformat    62.  9.101 / 62.  9.101
  libavdevice    62.  2.100 / 62.  2.100
  libavfilter    11. 12.100 / 11. 12.100
  libswscale      9.  3.100 /  9.  3.100
  libswresample   6.  2.100 /  6.  2.100
Input #0, rawvideo, from 'fd:':
  Duration: N/A, start: 0.000000, bitrate: 2985984 kb/s
  Stream #0:0: Video: rawvideo (RGB[24] / 0x18424752), rgb24, 1920x1080, 2985984 kb/s, 60 tbr, 60 tbn
Stream mapping:
  Stream #0:0 -> #0:0 (rawvideo (native) -> h264 (libx264))
[libx264 @ 000002f9689b6e80] using cpu capabilities: MMX2 SSE2Fast SSSE3 SSE4.2 AVX FMA3 BMI2 AVX2
[libx264 @ 000002f9689b6e80] profile High, level 4.2, 4:2:0, 8-bit
[libx264 @ 000002f9689b6e80] 264 - core 165 - H.264/MPEG-4 AVC codec - Copyleft 2003-2025 - http://www.videolan.org/x264.html - options: cabac=1 ref=2 deblock=1:0:0 analyse=0x3:0x113 me=hex subme=6 psy=1 psy_rd=1.00:0.00 mixed_ref=1 me_range=16 chroma_me=1 trellis=1 8x8dct=1 cqm=0 deadzone=21,11 fast_pskip=1 chroma_qp_offset=-2 threads=18 lookahead_threads=3 sliced_threads=0 nr=0 decimate=1 interlaced=0 bluray_compat=0 constrained_intra=0 bframes=3 b_pyramid=2 b_adapt=1 b_bias=0 direct=1 weightb=1 open_gop=0 weightp=1 keyint=250 keyint_min=25 scenecut=40 intra_refresh=0 rc_lookahead=30 rc=crf mbtree=1 crf=18.0 qcomp=0.60 qpmin=0 qpmax=69 qpstep=4 ip_ratio=1.40 aq=1:1.00
Output #0, mp4, to 'C:\Projekte\YouTube\VSCode\RisingSeaLevel\sea_level_rise_brazil.mp4':
  Metadata:
    encoder         : Lavf62.9.101
  Stream #0:0: Video: h264 (avc1 / 0x31637661), yuv420p(tv, progressive), 1920x1080, q=2-31, 60 fps, 15360 tbn
    Metadata:
      encoder         : Lavc62.23.103 libx264
    Side data:
      CPB properties: bitrate max/min/avg: 0/0/0 buffer size: 0 vbv_delay: N/A
frame=    0 fps=0.0 q=0.0 size=       0KiB time=N/A bitrate=N/A speed=N/A elapsed=0:00:00.50    frame=    0 fps=0.0 q=0.0 size=       0KiB time=N/A bitrate=N/A speed=N/A elapsed=0:00:01.01    frame=    0 fps=0.0 q=0.0 size=       0KiB time=N/A bitrate=N/A speed=N/A elapsed=0:00:01.54    frame=    3 fps=1.5 q=26.0 size=       0KiB time=00:00:00.01 bitrate=  23.0kbits/s speed=0.00811x elapsed=0:00:02.05    frame=   16 fps=6.2 q=26.0 size=       0KiB time=00:00:00.23 bitrate=   1.6kbits/s speed=0.091x elapsed=0:00:02.56    frame=   30 fps=9.7 q=26.0 size=     256KiB time=00:00:00.46 bitrate=4494.7kbits/s speed=0.151x elapsed=0:00:03.09    frame=   43 fps= 12 q=26.0 size=     256KiB time=00:00:00.68 bitrate=3069.6kbits/s speed=0.19x elapsed=0:00:03.60    frame=   57 fps= 14 q=26.0 size=     512KiB time=00:00:00.91 bitrate=4576.0kbits/s speed=0.223x elapsed=0:00:04.11    frame=   74 fps= 16 q=26.0 size=     512KiB time=00:00:01.20 bitrate=3495.6kbits/s speed=0.259x elapsed=0:00:04.63    frame=  105 fps= 20 q=26.0 size=     768KiB time=00:00:01.71 bitrate=3665.1kbits/s speed=0.334x elapsed=0:00:05.14    frame=  128 fps= 23 q=26.0 size=    1024KiB time=00:00:02.10 bitrate=3994.8kbits/s speed=0.371x elapsed=0:00:05.65    frame=  139 fps= 22 q=26.0 size=    1024KiB time=00:00:02.28 bitrate=3674.0kbits/s speed=0.369x elapsed=0:00:06.18    frame=  153 fps= 23 q=26.0 size=    1024KiB time=00:00:02.51 bitrate=3333.4kbits/s speed=0.376x elapsed=0:00:06.69    frame=  168 fps= 23 q=26.0 size=    1024KiB time=00:00:02.76 bitrate=3032.2kbits/s speed=0.384x elapsed=0:00:07.20    frame=  183 fps= 24 q=26.0 size=    1024KiB time=00:00:03.01 bitrate=2780.9kbits/s speed=0.39x elapsed=0:00:07.73    frame=  196 fps= 24 q=26.0 size=    1024KiB time=00:00:03.23 bitrate=2594.5kbits/s speed=0.392x elapsed=0:00:08.24    frame=  209 fps= 24 q=26.0 size=    1024KiB time=00:00:03.45 bitrate=2431.6kbits/s speed=0.394x elapsed=0:00:08.75    frame=  221 fps= 24 q=26.0 size=    1024KiB time=00:00:03.65 bitrate=2298.4kbits/s speed=0.393x elapsed=0:00:09.27    frame=  234 fps= 24 q=24.0 size=    1024KiB time=00:00:03.86 bitrate=2169.6kbits/s speed=0.395x elapsed=0:00:09.78    frame=  247 fps= 24 q=26.0 size=    1024KiB time=00:00:04.08 bitrate=2054.4kbits/s speed=0.396x elapsed=0:00:10.30    frame=  260 fps= 24 q=26.0 size=    1536KiB time=00:00:04.30 bitrate=2926.3kbits/s speed=0.397x elapsed=0:00:10.82    frame=  272 fps= 24 q=26.0 size=    1536KiB time=00:00:04.50 bitrate=2796.3kbits/s speed=0.397x elapsed=0:00:11.33    frame=  285 fps= 24 q=26.0 size=    1536KiB time=00:00:04.71 bitrate=2667.8kbits/s speed=0.398x elapsed=0:00:11.84    frame=  297 fps= 24 q=26.0 size=    1536KiB time=00:00:04.91 bitrate=2559.3kbits/s speed=0.398x elapsed=0:00:12.36    frame=  309 fps= 24 q=26.0 size=    1536KiB time=00:00:05.11 bitrate=2459.3kbits/s speed=0.397x elapsed=0:00:12.88    frame=  321 fps= 24 q=26.0 size=    1536KiB time=00:00:05.31 bitrate=2366.8kbits/s speed=0.397x elapsed=0:00:13.39    frame=  334 fps= 24 q=26.0 size=    1536KiB time=00:00:05.53 bitrate=2274.1kbits/s speed=0.398x elapsed=0:00:13.91    frame=  347 fps= 24 q=26.0 size=    1536KiB time=00:00:05.75 bitrate=2188.4kbits/s speed=0.398x elapsed=0:00:14.43    frame=  360 fps= 24 q=26.0 size=    1536KiB time=00:00:05.96 bitrate=2108.9kbits/s speed=0.399x elapsed=0:00:14.94    frame=  372 fps= 24 q=26.0 size=    1536KiB time=00:00:06.16 bitrate=2040.5kbits/s speed=0.399x elapsed=0:00:15.45    frame=  385 fps= 24 q=26.0 size=    1536KiB time=00:00:06.38 bitrate=1971.3kbits/s speed= 0.4x elapsed=0:00:15.96    frame=  398 fps= 24 q=26.0 size=    1536KiB time=00:00:06.60 bitrate=1906.6kbits/s speed= 0.4x elapsed=0:00:16.49    frame=  410 fps= 24 q=26.0 size=    1536KiB time=00:00:06.80 bitrate=1850.5kbits/s speed= 0.4x elapsed=0:00:17.00    frame=  422 fps= 24 q=26.0 size=    1536KiB time=00:00:07.00 bitrate=1797.6kbits/s speed= 0.4x elapsed=0:00:17.51    frame=  435 fps= 24 q=26.0 size=    1536KiB time=00:00:07.21 bitrate=1743.6kbits/s speed= 0.4x elapsed=0:00:18.04    frame=  448 fps= 24 q=26.0 size=    1536KiB time=00:00:07.43 bitrate=1692.8kbits/s speed=0.401x elapsed=0:00:18.55    frame=  460 fps= 24 q=26.0 size=    1536KiB time=00:00:07.63 bitrate=1648.5kbits/s speed= 0.4x elapsed=0:00:19.06    frame=  473 fps= 24 q=26.0 size=    1536KiB time=00:00:07.85 bitrate=1603.0kbits/s speed=0.401x elapsed=0:00:19.59    frame=  486 fps= 24 q=26.0 size=    1536KiB time=00:00:08.06 bitrate=1559.9kbits/s speed=0.401x elapsed=0:00:20.10    frame=  498 fps= 24 q=26.0 size=    1536KiB time=00:00:08.26 bitrate=1522.2kbits/s speed=0.401x elapsed=0:00:20.61    frame=  511 fps= 24 q=26.0 size=    2048KiB time=00:00:08.48 bitrate=1977.7kbits/s speed=0.401x elapsed=0:00:21.13    frame=  523 fps= 24 q=26.0 size=    2048KiB time=00:00:08.68 bitrate=1932.2kbits/s speed=0.401x elapsed=0:00:21.65    frame=  536 fps= 24 q=26.0 size=    2048KiB time=00:00:08.90 bitrate=1885.1kbits/s speed=0.402x elapsed=0:00:22.16    frame=  548 fps= 24 q=26.0 size=    2048KiB time=00:00:09.10 bitrate=1843.7kbits/s speed=0.401x elapsed=0:00:22.68    frame=  561 fps= 24 q=26.0 size=    2048KiB time=00:00:09.31 bitrate=1800.8kbits/s speed=0.402x elapsed=0:00:23.19    frame=  573 fps= 24 q=26.0 size=    2048KiB time=00:00:09.51 bitrate=1763.0kbits/s speed=0.401x elapsed=0:00:23.70    frame=  586 fps= 24 q=26.0 size=    2048KiB time=00:00:09.73 bitrate=1723.7kbits/s speed=0.402x elapsed=0:00:24.23    frame=  598 fps= 24 q=26.0 size=    2048KiB time=00:00:09.93 bitrate=1689.0kbits/s speed=0.401x elapsed=0:00:24.74    frame=  611 fps= 24 q=26.0 size=    2048KiB time=00:00:10.15 bitrate=1653.0kbits/s speed=0.402x elapsed=0:00:25.25    frame=  624 fps= 24 q=26.0 size=    2048KiB time=00:00:10.36 bitrate=1618.4kbits/s speed=0.402x elapsed=0:00:25.77    frame=  636 fps= 24 q=26.0 size=    2048KiB time=00:00:10.56 bitrate=1587.8kbits/s speed=0.402x elapsed=0:00:26.28    frame=  648 fps= 24 q=26.0 size=    2048KiB time=00:00:10.76 bitrate=1558.3kbits/s speed=0.402x elapsed=0:00:26.80    frame=  661 fps= 24 q=26.0 size=    2048KiB time=00:00:10.98 bitrate=1527.6kbits/s speed=0.402x elapsed=0:00:27.32    frame=  673 fps= 24 q=26.0 size=    2048KiB time=00:00:11.18 bitrate=1500.2kbits/s speed=0.402x elapsed=0:00:27.83    frame=  686 fps= 24 q=26.0 size=    2048KiB time=00:00:11.40 bitrate=1471.7kbits/s speed=0.402x elapsed=0:00:28.34    frame=  699 fps= 24 q=26.0 size=    2048KiB time=00:00:11.61 bitrate=1444.3kbits/s speed=0.402x elapsed=0:00:28.86    frame=  712 fps= 24 q=26.0 size=    2048KiB time=00:00:11.83 bitrate=1417.8kbits/s speed=0.403x elapsed=0:00:29.38    frame=  724 fps= 24 q=26.0 size=    2048KiB time=00:00:12.03 bitrate=1394.3kbits/s speed=0.402x elapsed=0:00:29.89    frame=  737 fps= 24 q=26.0 size=    2048KiB time=00:00:12.25 bitrate=1369.6kbits/s speed=0.403x elapsed=0:00:30.41    frame=  749 fps= 24 q=26.0 size=    2048KiB time=00:00:12.45 bitrate=1347.6kbits/s speed=0.402x elapsed=0:00:30.93    frame=  761 fps= 24 q=26.0 size=    2560KiB time=00:00:12.65 bitrate=1657.9kbits/s speed=0.402x elapsed=0:00:31.44    frame=  773 fps= 24 q=26.0 size=    2560KiB time=00:00:12.85 bitrate=1632.1kbits/s speed=0.402x elapsed=0:00:31.95    frame=  786 fps= 24 q=26.0 size=    2560KiB time=00:00:13.06 bitrate=1605.0kbits/s speed=0.402x elapsed=0:00:32.48    frame=  799 fps= 24 q=26.0 size=    2560KiB time=00:00:13.28 bitrate=1578.8kbits/s speed=0.402x elapsed=0:00:33.01    frame=  811 fps= 24 q=26.0 size=    2560KiB time=00:00:13.48 bitrate=1555.4kbits/s speed=0.402x elapsed=0:00:33.52    frame=  823 fps= 24 q=26.0 size=    2560KiB time=00:00:13.68 bitrate=1532.7kbits/s speed=0.402x elapsed=0:00:34.03    frame=  836 fps= 24 q=26.0 size=    2560KiB time=00:00:13.90 bitrate=1508.8kbits/s speed=0.402x elapsed=0:00:34.55    frame=  848 fps= 24 q=26.0 size=    2560KiB time=00:00:14.10 bitrate=1487.4kbits/s speed=0.402x elapsed=0:00:35.06    frame=  861 fps= 24 q=26.0 size=    2560KiB time=00:00:14.31 bitrate=1464.9kbits/s speed=0.402x elapsed=0:00:35.57    frame=  873 fps= 24 q=26.0 size=    2560KiB time=00:00:14.51 bitrate=1444.7kbits/s speed=0.402x elapsed=0:00:36.10    frame=  886 fps= 24 q=26.0 size=    2560KiB time=00:00:14.73 bitrate=1423.4kbits/s speed=0.402x elapsed=0:00:36.61    frame=  898 fps= 24 q=26.0 size=    2560KiB time=00:00:14.93 bitrate=1404.4kbits/s speed=0.402x elapsed=0:00:37.12    frame=  911 fps= 24 q=26.0 size=    2560KiB time=00:00:15.15 bitrate=1384.3kbits/s speed=0.402x elapsed=0:00:37.65    frame=  923 fps= 24 q=26.0 size=    2560KiB time=00:00:15.35 bitrate=1366.2kbits/s speed=0.402x elapsed=0:00:38.16    frame=  935 fps= 24 q=26.0 size=    2560KiB time=00:00:15.55 bitrate=1348.7kbits/s speed=0.402x elapsed=0:00:38.67    frame=  947 fps= 24 q=26.0 size=    2560KiB time=00:00:15.75 bitrate=1331.5kbits/s speed=0.402x elapsed=0:00:39.18    frame=  960 fps= 24 q=26.0 size=    2560KiB time=00:00:15.96 bitrate=1313.5kbits/s speed=0.402x elapsed=0:00:39.71    frame=  972 fps= 24 q=26.0 size=    2560KiB time=00:00:16.16 bitrate=1297.2kbits/s speed=0.402x elapsed=0:00:40.22    frame=  985 fps= 24 q=26.0 size=    2816KiB time=00:00:16.38 bitrate=1408.1kbits/s speed=0.402x elapsed=0:00:40.73    frame=  998 fps= 24 q=26.0 size=    2816KiB time=00:00:16.60 bitrate=1389.7kbits/s speed=0.402x elapsed=0:00:41.26    frame= 1010 fps= 24 q=26.0 size=    3072KiB time=00:00:16.80 bitrate=1498.0kbits/s speed=0.402x elapsed=0:00:41.77    frame= 1023 fps= 24 q=26.0 size=    3072KiB time=00:00:17.01 bitrate=1478.9kbits/s speed=0.402x elapsed=0:00:42.28    frame= 1036 fps= 24 q=26.0 size=    3072KiB time=00:00:17.23 bitrate=1460.3kbits/s speed=0.403x elapsed=0:00:42.79    frame= 1049 fps= 24 q=26.0 size=    3072KiB time=00:00:17.45 bitrate=1442.2kbits/s speed=0.403x elapsed=0:00:43.32    frame= 1061 fps= 24 q=26.0 size=    3072KiB time=00:00:17.65 bitrate=1425.8kbits/s speed=0.403x elapsed=0:00:43.83    frame= 1074 fps= 24 q=26.0 size=    3072KiB time=00:00:17.86 bitrate=1408.6kbits/s speed=0.403x elapsed=0:00:44.34    frame= 1086 fps= 24 q=26.0 size=    3072KiB time=00:00:18.06 bitrate=1393.0kbits/s speed=0.403x elapsed=0:00:44.87    frame= 1099 fps= 24 q=26.0 size=    3328KiB time=00:00:18.28 bitrate=1491.2kbits/s speed=0.403x elapsed=0:00:45.38    frame= 1111 fps= 24 q=26.0 size=    3328KiB time=00:00:18.48 bitrate=1475.0kbits/s speed=0.403x elapsed=0:00:45.89    frame= 1124 fps= 24 q=26.0 size=    3328KiB time=00:00:18.70 bitrate=1457.9kbits/s speed=0.403x elapsed=0:00:46.40    frame= 1137 fps= 24 q=26.0 size=    3328KiB time=00:00:18.91 bitrate=1441.2kbits/s speed=0.403x elapsed=0:00:46.93    frame= 1149 fps= 24 q=26.0 size=    3328KiB time=00:00:19.11 bitrate=1426.2kbits/s speed=0.403x elapsed=0:00:47.44    frame= 1162 fps= 24 q=26.0 size=    3328KiB time=00:00:19.33 bitrate=1410.2kbits/s speed=0.403x elapsed=0:00:47.95    frame= 1175 fps= 24 q=26.0 size=    3328KiB time=00:00:19.55 bitrate=1394.5kbits/s speed=0.403x elapsed=0:00:48.47    frame= 1187 fps= 24 q=26.0 size=    3328KiB time=00:00:19.75 bitrate=1380.4kbits/s speed=0.403x elapsed=0:00:48.98    frame= 1200 fps= 24 q=26.0 size=    3328KiB time=00:00:19.96 bitrate=1365.4kbits/s speed=0.403x elapsed=0:00:49.51    frame= 1212 fps= 24 q=26.0 size=    3328KiB time=00:00:20.16 bitrate=1351.9kbits/s speed=0.403x elapsed=0:00:50.02    frame= 1225 fps= 24 q=26.0 size=    3328KiB time=00:00:20.38 bitrate=1337.5kbits/s speed=0.403x elapsed=0:00:50.53    frame= 1238 fps= 24 q=26.0 size=    3328KiB time=00:00:20.60 bitrate=1323.5kbits/s speed=0.404x elapsed=0:00:51.05    frame= 1250 fps= 24 q=26.0 size=    3584KiB time=00:00:20.80 bitrate=1411.6kbits/s speed=0.403x elapsed=0:00:51.56    frame= 1263 fps= 24 q=26.0 size=    3840KiB time=00:00:21.01 bitrate=1496.8kbits/s speed=0.404x elapsed=0:00:52.08    frame= 1275 fps= 24 q=26.0 size=    3840KiB time=00:00:21.21 bitrate=1482.7kbits/s speed=0.403x elapsed=0:00:52.59    frame= 1288 fps= 24 q=26.0 size=    3840KiB time=00:00:21.43 bitrate=1467.7kbits/s speed=0.403x elapsed=0:00:53.12    frame= 1300 fps= 24 q=26.0 size=    3840KiB time=00:00:21.63 bitrate=1454.1kbits/s speed=0.403x elapsed=0:00:53.63    frame= 1313 fps= 24 q=26.0 size=    3840KiB time=00:00:21.85 bitrate=1439.7kbits/s speed=0.404x elapsed=0:00:54.14    frame= 1326 fps= 24 q=26.0 size=    4096KiB time=00:00:22.06 bitrate=1520.6kbits/s speed=0.404x elapsed=0:00:54.67    frame= 1339 fps= 24 q=26.0 size=    4096KiB time=00:00:22.28 bitrate=1505.8kbits/s speed=0.404x elapsed=0:00:55.18    frame= 1351 fps= 24 q=26.0 size=    4096KiB time=00:00:22.48 bitrate=1492.4kbits/s speed=0.404x elapsed=0:00:55.69    frame= 1364 fps= 24 q=26.0 size=    4096KiB time=00:00:22.70 bitrate=1478.2kbits/s speed=0.404x elapsed=0:00:56.20    frame= 1377 fps= 24 q=26.0 size=    4096KiB time=00:00:22.91 bitrate=1464.2kbits/s speed=0.404x elapsed=0:00:56.72    frame= 1390 fps= 24 q=26.0 size=    4096KiB time=00:00:23.13 bitrate=1450.5kbits/s speed=0.404x elapsed=0:00:57.23    frame= 1402 fps= 24 q=26.0 size=    4096KiB time=00:00:23.33 bitrate=1438.1kbits/s speed=0.404x elapsed=0:00:57.75    frame= 1415 fps= 24 q=26.0 size=    4096KiB time=00:00:23.55 bitrate=1424.8kbits/s speed=0.404x elapsed=0:00:58.27    frame= 1427 fps= 24 q=26.0 size=    4096KiB time=00:00:23.75 bitrate=1412.8kbits/s speed=0.404x elapsed=0:00:58.78    frame= 1440 fps= 24 q=26.0 size=    4352KiB time=00:00:23.96 bitrate=1487.6kbits/s speed=0.404x elapsed=0:00:59.29    frame= 1453 fps= 24 q=26.0 size=    4352KiB time=00:00:24.18 bitrate=1474.2kbits/s speed=0.404x elapsed=0:00:59.82    frame= 1465 fps= 24 q=26.0 size=    4352KiB time=00:00:24.38 bitrate=1462.1kbits/s speed=0.404x elapsed=0:01:00.33    frame= 1478 fps= 24 q=26.0 size=    4352KiB time=00:00:24.60 bitrate=1449.3kbits/s speed=0.404x elapsed=0:01:00.84    frame= 1491 fps= 24 q=26.0 size=    4352KiB time=00:00:24.81 bitrate=1436.6kbits/s speed=0.404x elapsed=0:01:01.37    frame= 1503 fps= 24 q=26.0 size=    4864KiB time=00:00:25.01 bitrate=1592.8kbits/s speed=0.404x elapsed=0:01:01.88    frame= 1516 fps= 24 q=26.0 size=    4864KiB time=00:00:25.23 bitrate=1579.1kbits/s speed=0.404x elapsed=0:01:02.39    frame= 1529 fps= 24 q=26.0 size=    4864KiB time=00:00:25.45 bitrate=1565.7kbits/s speed=0.404x elapsed=0:01:02.91    frame= 1542 fps= 24 q=26.0 size=    4864KiB time=00:00:25.66 bitrate=1552.5kbits/s speed=0.405x elapsed=0:01:03.43    frame= 1554 fps= 24 q=26.0 size=    4864KiB time=00:00:25.86 bitrate=1540.4kbits/s speed=0.405x elapsed=0:01:03.94    frame= 1567 fps= 24 q=26.0 size=    4864KiB time=00:00:26.08 bitrate=1527.7kbits/s speed=0.405x elapsed=0:01:04.46    frame= 1580 fps= 24 q=26.0 size=    4864KiB time=00:00:26.30 bitrate=1515.1kbits/s speed=0.405x elapsed=0:01:04.98    frame= 1593 fps= 24 q=26.0 size=    5120KiB time=00:00:26.51 bitrate=1581.8kbits/s speed=0.405x elapsed=0:01:05.49    frame= 1605 fps= 24 q=26.0 size=    5120KiB time=00:00:26.71 bitrate=1569.9kbits/s speed=0.405x elapsed=0:01:06.00    frame= 1618 fps= 24 q=26.0 size=    5120KiB time=00:00:26.93 bitrate=1557.3kbits/s speed=0.405x elapsed=0:01:06.52    frame= 1631 fps= 24 q=26.0 size=    5120KiB time=00:00:27.15 bitrate=1544.9kbits/s speed=0.405x elapsed=0:01:07.04    frame= 1643 fps= 24 q=26.0 size=    5120KiB time=00:00:27.35 bitrate=1533.6kbits/s speed=0.405x elapsed=0:01:07.55    frame= 1656 fps= 24 q=26.0 size=    5120KiB time=00:00:27.56 bitrate=1521.5kbits/s speed=0.405x elapsed=0:01:08.07    frame= 1669 fps= 24 q=26.0 size=    5120KiB time=00:00:27.78 bitrate=1509.7kbits/s speed=0.405x elapsed=0:01:08.58    frame= 1681 fps= 24 q=26.0 size=    5376KiB time=00:00:27.98 bitrate=1573.8kbits/s speed=0.405x elapsed=0:01:09.09    frame= 1693 fps= 24 q=26.0 size=    5376KiB time=00:00:28.18 bitrate=1562.6kbits/s speed=0.405x elapsed=0:01:09.62    frame= 1705 fps= 24 q=26.0 size=    5376KiB time=00:00:28.38 bitrate=1551.6kbits/s speed=0.405x elapsed=0:01:10.13    frame= 1718 fps= 24 q=26.0 size=    5376KiB time=00:00:28.60 bitrate=1539.9kbits/s speed=0.405x elapsed=0:01:10.64    frame= 1731 fps= 24 q=26.0 size=    5376KiB time=00:00:28.81 bitrate=1528.3kbits/s speed=0.405x elapsed=0:01:11.17    frame= 1743 fps= 24 q=26.0 size=    5376KiB time=00:00:29.01 bitrate=1517.8kbits/s speed=0.405x elapsed=0:01:11.68    frame= 1756 fps= 24 q=26.0 size=    5888KiB time=00:00:29.23 bitrate=1650.0kbits/s speed=0.405x elapsed=0:01:12.19    frame= 1768 fps= 24 q=26.0 size=    5888KiB time=00:00:29.43 bitrate=1638.8kbits/s speed=0.405x elapsed=0:01:12.70    frame= 1781 fps= 24 q=26.0 size=    5888KiB time=00:00:29.65 bitrate=1626.8kbits/s speed=0.405x elapsed=0:01:13.23    frame= 1794 fps= 24 q=26.0 size=    5888KiB time=00:00:29.86 bitrate=1615.0kbits/s speed=0.405x elapsed=0:01:13.74    frame= 1806 fps= 24 q=26.0 size=    6144KiB time=00:00:30.06 bitrate=1674.0kbits/s speed=0.405x elapsed=0:01:14.25    frame= 1819 fps= 24 q=26.0 size=    6144KiB time=00:00:30.28 bitrate=1662.0kbits/s speed=0.405x elapsed=0:01:14.76    frame= 1832 fps= 24 q=26.0 size=    6144KiB time=00:00:30.50 bitrate=1650.2kbits/s speed=0.405x elapsed=0:01:15.29    frame= 1844 fps= 24 q=26.0 size=    6144KiB time=00:00:30.70 bitrate=1639.5kbits/s speed=0.405x elapsed=0:01:15.80    frame= 1857 fps= 24 q=26.0 size=    6144KiB time=00:00:30.91 bitrate=1628.0kbits/s speed=0.405x elapsed=0:01:16.31    frame= 1870 fps= 24 q=26.0 size=    6144KiB time=00:00:31.13 bitrate=1616.7kbits/s speed=0.405x elapsed=0:01:16.84    frame= 1882 fps= 24 q=26.0 size=    6400KiB time=00:00:31.33 bitrate=1673.3kbits/s speed=0.405x elapsed=0:01:17.35    frame= 1895 fps= 24 q=26.0 size=    6400KiB time=00:00:31.55 bitrate=1661.8kbits/s speed=0.405x elapsed=0:01:17.86    frame= 1907 fps= 24 q=26.0 size=    6400KiB time=00:00:31.75 bitrate=1651.3kbits/s speed=0.405x elapsed=0:01:18.38    frame= 1920 fps= 24 q=26.0 size=    6400KiB time=00:00:31.96 bitrate=1640.1kbits/s speed=0.405x elapsed=0:01:18.89    frame= 1933 fps= 24 q=26.0 size=    6400KiB time=00:00:32.18 bitrate=1629.1kbits/s speed=0.405x elapsed=0:01:19.40    frame= 1946 fps= 24 q=26.0 size=    6400KiB time=00:00:32.40 bitrate=1618.2kbits/s speed=0.405x elapsed=0:01:19.93    frame= 1958 fps= 24 q=26.0 size=    6656KiB time=00:00:32.60 bitrate=1672.6kbits/s speed=0.405x elapsed=0:01:20.44    frame= 1971 fps= 24 q=26.0 size=    6656KiB time=00:00:32.81 bitrate=1661.5kbits/s speed=0.405x elapsed=0:01:20.95    frame= 1984 fps= 24 q=24.0 size=    6656KiB time=00:00:33.03 bitrate=1650.6kbits/s speed=0.405x elapsed=0:01:21.48    frame= 1996 fps= 24 q=26.0 size=    6656KiB time=00:00:33.23 bitrate=1640.7kbits/s speed=0.405x elapsed=0:01:21.99    frame= 2009 fps= 24 q=26.0 size=    7168KiB time=00:00:33.45 bitrate=1755.5kbits/s speed=0.405x elapsed=0:01:22.50    frame= 2022 fps= 24 q=26.0 size=    7168KiB time=00:00:33.66 bitrate=1744.2kbits/s speed=0.405x elapsed=0:01:23.02    frame= 2035 fps= 24 q=26.0 size=    7168KiB time=00:00:33.88 bitrate=1733.0kbits/s speed=0.406x elapsed=0:01:23.54    frame= 2047 fps= 24 q=26.0 size=    7168KiB time=00:00:34.08 bitrate=1722.9kbits/s speed=0.406x elapsed=0:01:24.04    frame= 2060 fps= 24 q=26.0 size=    7168KiB time=00:00:34.30 bitrate=1712.0kbits/s speed=0.406x elapsed=0:01:24.57    frame= 2073 fps= 24 q=26.0 size=    7168KiB time=00:00:34.51 bitrate=1701.2kbits/s speed=0.406x elapsed=0:01:25.08    frame= 2085 fps= 24 q=26.0 size=    7424KiB time=00:00:34.71 bitrate=1751.8kbits/s speed=0.406x elapsed=0:01:25.59    frame= 2098 fps= 24 q=26.0 size=    7424KiB time=00:00:34.93 bitrate=1741.0kbits/s speed=0.406x elapsed=0:01:26.10    frame= 2111 fps= 24 q=26.0 size=    7424KiB time=00:00:35.15 bitrate=1730.2kbits/s speed=0.406x elapsed=0:01:26.63    frame= 2123 fps= 24 q=26.0 size=    7424KiB time=00:00:35.35 bitrate=1720.4kbits/s speed=0.406x elapsed=0:01:27.14    frame= 2136 fps= 24 q=26.0 size=    7424KiB time=00:00:35.56 bitrate=1710.0kbits/s speed=0.406x elapsed=0:01:27.65    frame= 2150 fps= 24 q=26.0 size=    7680KiB time=00:00:35.80 bitrate=1757.4kbits/s speed=0.406x elapsed=0:01:28.18    frame= 2164 fps= 24 q=26.0 size=    7680KiB time=00:00:36.03 bitrate=1746.0kbits/s speed=0.406x elapsed=0:01:28.69    frame= 2179 fps= 24 q=26.0 size=    7680KiB time=00:00:36.28 bitrate=1734.0kbits/s speed=0.407x elapsed=0:01:29.20    frame= 2194 fps= 24 q=26.0 size=    7680KiB time=00:00:36.53 bitrate=1722.1kbits/s speed=0.407x elapsed=0:01:29.73    frame= 2208 fps= 24 q=26.0 size=    7936KiB time=00:00:36.76 bitrate=1768.2kbits/s speed=0.407x elapsed=0:01:30.24    frame= 2223 fps= 24 q=26.0 size=    7936KiB time=00:00:37.01 bitrate=1756.3kbits/s speed=0.408x elapsed=0:01:30.76    frame= 2238 fps= 25 q=26.0 size=    7936KiB time=00:00:37.26 bitrate=1744.5kbits/s speed=0.408x elapsed=0:01:31.29    frame= 2252 fps= 25 q=26.0 size=    8448KiB time=00:00:37.50 bitrate=1845.5kbits/s speed=0.408x elapsed=0:01:31.80    frame= 2266 fps= 25 q=26.0 size=    8448KiB time=00:00:37.73 bitrate=1834.1kbits/s speed=0.409x elapsed=0:01:32.31    frame= 2280 fps= 25 q=26.0 size=    8448KiB time=00:00:37.96 bitrate=1822.8kbits/s speed=0.409x elapsed=0:01:32.84    frame= 2294 fps= 25 q=26.0 size=    8448KiB time=00:00:38.20 bitrate=1811.7kbits/s speed=0.409x elapsed=0:01:33.35    frame= 2309 fps= 25 q=26.0 size=    8448KiB time=00:00:38.45 bitrate=1799.9kbits/s speed=0.41x elapsed=0:01:33.86    frame= 2324 fps= 25 q=26.0 size=    8704KiB time=00:00:38.70 bitrate=1842.5kbits/s speed=0.41x elapsed=0:01:34.38    frame= 2337 fps= 25 q=26.0 size=    8704KiB time=00:00:38.91 bitrate=1832.2kbits/s speed=0.41x elapsed=0:01:34.89    frame= 2351 fps= 25 q=26.0 size=    8704KiB time=00:00:39.15 bitrate=1821.3kbits/s speed=0.41x elapsed=0:01:35.41    frame= 2366 fps= 25 q=26.0 size=    8704KiB time=00:00:39.40 bitrate=1809.7kbits/s speed=0.411x elapsed=0:01:35.93    frame= 2380 fps= 25 q=26.0 size=    8704KiB time=00:00:39.63 bitrate=1799.1kbits/s speed=0.411x elapsed=0:01:36.44    frame= 2394 fps= 25 q=26.0 size=    8960KiB time=00:00:39.86 bitrate=1841.2kbits/s speed=0.411x elapsed=0:01:36.95    frame= 2408 fps= 25 q=26.0 size=    8960KiB time=00:00:40.10 bitrate=1830.4kbits/s speed=0.411x elapsed=0:01:37.48    frame= 2423 fps= 25 q=26.0 size=    8960KiB time=00:00:40.35 bitrate=1819.1kbits/s speed=0.412x elapsed=0:01:37.99    frame= 2437 fps= 25 q=26.0 size=    8960KiB time=00:00:40.58 bitrate=1808.6kbits/s speed=0.412x elapsed=0:01:38.50    frame= 2452 fps= 25 q=26.0 size=    9216KiB time=00:00:40.83 bitrate=1848.9kbits/s speed=0.412x elapsed=0:01:39.02    frame= 2466 fps= 25 q=26.0 size=    9216KiB time=00:00:41.06 bitrate=1838.4kbits/s speed=0.413x elapsed=0:01:39.53    frame= 2481 fps= 25 q=26.0 size=    9216KiB time=00:00:41.31 bitrate=1827.3kbits/s speed=0.413x elapsed=0:01:40.04    frame= 2496 fps= 25 q=26.0 size=    9216KiB time=00:00:41.56 bitrate=1816.3kbits/s speed=0.413x elapsed=0:01:40.57    frame= 2510 fps= 25 q=26.0 size=    9728KiB time=00:00:41.80 bitrate=1906.5kbits/s speed=0.414x elapsed=0:01:41.08    frame= 2524 fps= 25 q=26.0 size=    9728KiB time=00:00:42.03 bitrate=1895.9kbits/s speed=0.414x elapsed=0:01:41.59    frame= 2537 fps= 25 q=26.0 size=    9728KiB time=00:00:42.25 bitrate=1886.2kbits/s speed=0.414x elapsed=0:01:42.11    frame= 2552 fps= 25 q=26.0 size=    9728KiB time=00:00:42.50 bitrate=1875.1kbits/s speed=0.414x elapsed=0:01:42.63    frame= 2566 fps= 25 q=26.0 size=    9984KiB time=00:00:42.73 bitrate=1913.9kbits/s speed=0.414x elapsed=0:01:43.15    frame= 2581 fps= 25 q=26.0 size=    9984KiB time=00:00:42.98 bitrate=1902.8kbits/s speed=0.415x elapsed=0:01:43.66    frame= 2594 fps= 25 q=26.0 size=    9984KiB time=00:00:43.20 bitrate=1893.3kbits/s speed=0.415x elapsed=0:01:44.17    frame= 2607 fps= 25 q=26.0 size=    9984KiB time=00:00:43.41 bitrate=1883.8kbits/s speed=0.415x elapsed=0:01:44.70    frame= 2621 fps= 25 q=26.0 size=   10240KiB time=00:00:43.65 bitrate=1921.8kbits/s speed=0.415x elapsed=0:01:45.21    frame= 2635 fps= 25 q=26.0 size=   10240KiB time=00:00:43.88 bitrate=1911.6kbits/s speed=0.415x elapsed=0:01:45.72    frame= 2649 fps= 25 q=26.0 size=   10240KiB time=00:00:44.11 bitrate=1901.5kbits/s speed=0.415x elapsed=0:01:46.24    frame= 2664 fps= 25 q=26.0 size=   10240KiB time=00:00:44.36 bitrate=1890.8kbits/s speed=0.416x elapsed=0:01:46.75    frame= 2677 fps= 25 q=26.0 size=   10496KiB time=00:00:44.58 bitrate=1928.6kbits/s speed=0.416x elapsed=0:01:47.27    frame= 2691 fps= 25 q=26.0 size=   10496KiB time=00:00:44.81 bitrate=1918.6kbits/s speed=0.416x elapsed=0:01:47.78    frame= 2706 fps= 25 q=26.0 size=   10496KiB time=00:00:45.06 bitrate=1907.9kbits/s speed=0.416x elapsed=0:01:48.30    frame= 2719 fps= 25 q=26.0 size=   10496KiB time=00:00:45.28 bitrate=1898.8kbits/s speed=0.416x elapsed=0:01:48.81    frame= 2732 fps= 25 q=26.0 size=   10752KiB time=00:00:45.50 bitrate=1935.8kbits/s speed=0.416x elapsed=0:01:49.32    frame= 2745 fps= 25 q=26.0 size=   10752KiB time=00:00:45.71 bitrate=1926.7kbits/s speed=0.416x elapsed=0:01:49.85    frame= 2758 fps= 25 q=26.0 size=   11008KiB time=00:00:45.93 bitrate=1963.2kbits/s speed=0.416x elapsed=0:01:50.36    frame= 2771 fps= 25 q=26.0 size=   11008KiB time=00:00:46.15 bitrate=1954.0kbits/s speed=0.416x elapsed=0:01:50.87    frame= 2784 fps= 25 q=26.0 size=   11264KiB time=00:00:46.36 bitrate=1990.1kbits/s speed=0.416x elapsed=0:01:51.40    frame= 2797 fps= 25 q=26.0 size=   11264KiB time=00:00:46.58 bitrate=1980.9kbits/s speed=0.416x elapsed=0:01:51.91    frame= 2810 fps= 25 q=26.0 size=   11264KiB time=00:00:46.80 bitrate=1971.7kbits/s speed=0.416x elapsed=0:01:52.42    frame= 2824 fps= 25 q=26.0 size=   11264KiB time=00:00:47.03 bitrate=1961.9kbits/s speed=0.416x elapsed=0:01:52.95    frame= 2836 fps= 25 q=26.0 size=   11264KiB time=00:00:47.23 bitrate=1953.6kbits/s speed=0.416x elapsed=0:01:53.46    frame= 2849 fps= 25 q=26.0 size=   11520KiB time=00:00:47.45 bitrate=1988.9kbits/s speed=0.416x elapsed=0:01:53.97    frame= 2863 fps= 25 q=26.0 size=   11520KiB time=00:00:47.68 bitrate=1979.1kbits/s speed=0.416x elapsed=0:01:54.49    frame= 2876 fps= 25 q=26.0 size=   11520KiB time=00:00:47.90 bitrate=1970.2kbits/s speed=0.416x elapsed=0:01:55.00    frame= 2889 fps= 25 q=26.0 size=   11520KiB time=00:00:48.11 bitrate=1961.3kbits/s speed=0.417x elapsed=0:01:55.51    frame= 2902 fps= 25 q=26.0 size=   11776KiB time=00:00:48.33 bitrate=1995.9kbits/s speed=0.417x elapsed=0:01:56.04    frame= 2915 fps= 25 q=26.0 size=   11776KiB time=00:00:48.55 bitrate=1987.0kbits/s speed=0.417x elapsed=0:01:56.55    frame= 2928 fps= 25 q=26.0 size=   11776KiB time=00:00:48.76 bitrate=1978.2kbits/s speed=0.417x elapsed=0:01:57.06    frame= 2941 fps= 25 q=26.0 size=   11776KiB time=00:00:48.98 bitrate=1969.4kbits/s speed=0.417x elapsed=0:01:57.59    frame= 2954 fps= 25 q=26.0 size=   11776KiB time=00:00:49.20 bitrate=1960.8kbits/s speed=0.417x elapsed=0:01:58.10    frame= 2967 fps= 25 q=26.0 size=   12032KiB time=00:00:49.41 bitrate=1994.6kbits/s speed=0.417x elapsed=0:01:58.61    frame= 2980 fps= 25 q=26.0 size=   12032KiB time=00:00:49.63 bitrate=1985.9kbits/s speed=0.417x elapsed=0:01:59.12    frame= 2993 fps= 25 q=26.0 size=   12032KiB time=00:00:49.85 bitrate=1977.3kbits/s speed=0.417x elapsed=0:01:59.65    frame= 3006 fps= 25 q=26.0 size=   12288KiB time=00:00:50.06 bitrate=2010.6kbits/s speed=0.417x elapsed=0:02:00.16    frame= 3019 fps= 25 q=26.0 size=   12288KiB time=00:00:50.28 bitrate=2001.9kbits/s speed=0.417x elapsed=0:02:00.67    frame= 3032 fps= 25 q=26.0 size=   12544KiB time=00:00:50.50 bitrate=2034.9kbits/s speed=0.417x elapsed=0:02:01.19    frame= 3045 fps= 25 q=26.0 size=   12544KiB time=00:00:50.71 bitrate=2026.2kbits/s speed=0.417x elapsed=0:02:01.70    frame= 3058 fps= 25 q=26.0 size=   12544KiB time=00:00:50.93 bitrate=2017.6kbits/s speed=0.417x elapsed=0:02:02.21    frame= 3071 fps= 25 q=26.0 size=   12544KiB time=00:00:51.15 bitrate=2009.0kbits/s speed=0.417x elapsed=0:02:02.74    frame= 3084 fps= 25 q=26.0 size=   12544KiB time=00:00:51.36 bitrate=2000.5kbits/s speed=0.417x elapsed=0:02:03.25    frame= 3096 fps= 25 q=26.0 size=   12800KiB time=00:00:51.56 bitrate=2033.4kbits/s speed=0.417x elapsed=0:02:03.76    frame= 3110 fps= 25 q=26.0 size=   12800KiB time=00:00:51.80 bitrate=2024.3kbits/s speed=0.417x elapsed=0:02:04.29    frame= 3123 fps= 25 q=26.0 size=   12800KiB time=00:00:52.01 bitrate=2015.9kbits/s speed=0.417x elapsed=0:02:04.80    frame= 3136 fps= 25 q=26.0 size=   12800KiB time=00:00:52.23 bitrate=2007.5kbits/s speed=0.417x elapsed=0:02:05.31    frame= 3149 fps= 25 q=26.0 size=   12800KiB time=00:00:52.45 bitrate=1999.2kbits/s speed=0.417x elapsed=0:02:05.83    frame= 3162 fps= 25 q=26.0 size=   13056KiB time=00:00:52.66 bitrate=2030.8kbits/s speed=0.417x elapsed=0:02:06.34    frame= 3175 fps= 25 q=26.0 size=   13056KiB time=00:00:52.88 bitrate=2022.5kbits/s speed=0.417x elapsed=0:02:06.87    frame= 3188 fps= 25 q=26.0 size=   13056KiB time=00:00:53.10 bitrate=2014.2kbits/s speed=0.417x elapsed=0:02:07.38    frame= 3201 fps= 25 q=26.0 size=   13056KiB time=00:00:53.31 bitrate=2006.0kbits/s speed=0.417x elapsed=0:02:07.89    frame= 3214 fps= 25 q=26.0 size=   13056KiB time=00:00:53.53 bitrate=1997.9kbits/s speed=0.417x elapsed=0:02:08.41    frame= 3227 fps= 25 q=26.0 size=   13312KiB time=00:00:53.75 bitrate=2028.9kbits/s speed=0.417x elapsed=0:02:08.93    frame= 3240 fps= 25 q=26.0 size=   13312KiB time=00:00:53.96 bitrate=2020.7kbits/s speed=0.417x elapsed=0:02:09.44    frame= 3253 fps= 25 q=26.0 size=   13568KiB time=00:00:54.18 bitrate=2051.4kbits/s speed=0.417x elapsed=0:02:09.96    frame= 3266 fps= 25 q=26.0 size=   13568KiB time=00:00:54.40 bitrate=2043.2kbits/s speed=0.417x elapsed=0:02:10.47    frame= 3279 fps= 25 q=26.0 size=   13568KiB time=00:00:54.61 bitrate=2035.1kbits/s speed=0.417x elapsed=0:02:10.98    frame= 3292 fps= 25 q=26.0 size=   13568KiB time=00:00:54.83 bitrate=2027.0kbits/s speed=0.417x elapsed=0:02:11.51    frame= 3305 fps= 25 q=26.0 size=   13568KiB time=00:00:55.05 bitrate=2019.1kbits/s speed=0.417x elapsed=0:02:12.02    frame= 3318 fps= 25 q=26.0 size=   13568KiB time=00:00:55.26 bitrate=2011.1kbits/s speed=0.417x elapsed=0:02:12.53    frame= 3332 fps= 25 q=26.0 size=   13568KiB time=00:00:55.50 bitrate=2002.7kbits/s speed=0.417x elapsed=0:02:13.06    frame= 3344 fps= 25 q=26.0 size=   13824KiB time=00:00:55.70 bitrate=2033.2kbits/s speed=0.417x elapsed=0:02:13.57    frame= 3357 fps= 25 q=26.0 size=   13824KiB time=00:00:55.91 bitrate=2025.3kbits/s speed=0.417x elapsed=0:02:14.08    frame= 3371 fps= 25 q=26.0 size=   13824KiB time=00:00:56.15 bitrate=2016.9kbits/s speed=0.417x elapsed=0:02:14.60    frame= 3384 fps= 25 q=26.0 size=   13824KiB time=00:00:56.36 bitrate=2009.1kbits/s speed=0.417x elapsed=0:02:15.11    frame= 3397 fps= 25 q=26.0 size=   13824KiB time=00:00:56.58 bitrate=2001.4kbits/s speed=0.417x elapsed=0:02:15.62    frame= 3410 fps= 25 q=26.0 size=   13824KiB time=00:00:56.80 bitrate=1993.8kbits/s speed=0.417x elapsed=0:02:16.15    frame= 3423 fps= 25 q=26.0 size=   13824KiB time=00:00:57.01 bitrate=1986.2kbits/s speed=0.417x elapsed=0:02:16.66    frame= 3437 fps= 25 q=26.0 size=   14080KiB time=00:00:57.25 bitrate=2014.7kbits/s speed=0.417x elapsed=0:02:17.17    frame= 3449 fps= 25 q=26.0 size=   14080KiB time=00:00:57.45 bitrate=2007.7kbits/s speed=0.417x elapsed=0:02:17.68    frame= 3462 fps= 25 q=26.0 size=   14080KiB time=00:00:57.66 bitrate=2000.2kbits/s speed=0.417x elapsed=0:02:18.21    frame= 3476 fps= 25 q=26.0 size=   14080KiB time=00:00:57.90 bitrate=1992.1kbits/s speed=0.417x elapsed=0:02:18.72    frame= 3489 fps= 25 q=26.0 size=   14080KiB time=00:00:58.11 bitrate=1984.7kbits/s speed=0.417x elapsed=0:02:19.23    frame= 3502 fps= 25 q=26.0 size=   14336KiB time=00:00:58.33 bitrate=2013.3kbits/s speed=0.417x elapsed=0:02:19.76    frame= 3515 fps= 25 q=26.0 size=   14336KiB time=00:00:58.55 bitrate=2005.8kbits/s speed=0.417x elapsed=0:02:20.27    frame= 3529 fps= 25 q=26.0 size=   14336KiB time=00:00:58.78 bitrate=1997.9kbits/s speed=0.418x elapsed=0:02:20.78    frame= 3542 fps= 25 q=26.0 size=   14336KiB time=00:00:59.00 bitrate=1990.5kbits/s speed=0.418x elapsed=0:02:21.30    frame= 3555 fps= 25 q=26.0 size=   14336KiB time=00:00:59.21 bitrate=1983.2kbits/s speed=0.418x elapsed=0:02:21.82    frame= 3568 fps= 25 q=26.0 size=   14336KiB time=00:00:59.43 bitrate=1976.0kbits/s speed=0.418x elapsed=0:02:22.33    frame= 3581 fps= 25 q=26.0 size=   14592KiB time=00:00:59.65 bitrate=2004.0kbits/s speed=0.418x elapsed=0:02:22.85    frame= 3595 fps= 25 q=26.0 size=   14592KiB time=00:00:59.88 bitrate=1996.2kbits/s speed=0.418x elapsed=0:02:23.36    frame= 3608 fps= 25 q=26.0 size=   14592KiB time=00:01:00.10 bitrate=1989.0kbits/s speed=0.418x elapsed=0:02:23.87    frame= 3621 fps= 25 q=26.0 size=   14592KiB time=00:01:00.31 bitrate=1981.8kbits/s speed=0.418x elapsed=0:02:24.40    frame= 3635 fps= 25 q=26.0 size=   14592KiB time=00:01:00.55 bitrate=1974.2kbits/s speed=0.418x elapsed=0:02:24.93    frame= 3648 fps= 25 q=26.0 size=   14592KiB time=00:01:00.76 bitrate=1967.2kbits/s speed=0.418x elapsed=0:02:25.44    frame= 3661 fps= 25 q=26.0 size=   14592KiB time=00:01:00.98 bitrate=1960.2kbits/s speed=0.418x elapsed=0:02:25.95    frame= 3675 fps= 25 q=26.0 size=   14592KiB time=00:01:01.21 bitrate=1952.7kbits/s speed=0.418x elapsed=0:02:26.47    frame= 3688 fps= 25 q=26.0 size=   14848KiB time=00:01:01.43 bitrate=1980.0kbits/s speed=0.418x elapsed=0:02:26.99    frame= 3701 fps= 25 q=26.0 size=   14848KiB time=00:01:01.65 bitrate=1973.0kbits/s speed=0.418x elapsed=0:02:27.50    frame= 3714 fps= 25 q=26.0 size=   14848KiB time=00:01:01.86 bitrate=1966.1kbits/s speed=0.418x elapsed=0:02:28.02    frame= 3728 fps= 25 q=26.0 size=   14848KiB time=00:01:02.10 bitrate=1958.7kbits/s speed=0.418x elapsed=0:02:28.54    frame= 3741 fps= 25 q=26.0 size=   14848KiB time=00:01:02.31 bitrate=1951.9kbits/s speed=0.418x elapsed=0:02:29.05    frame= 3754 fps= 25 q=26.0 size=   15104KiB time=00:01:02.53 bitrate=1978.7kbits/s speed=0.418x elapsed=0:02:29.57    frame= 3767 fps= 25 q=26.0 size=   15104KiB time=00:01:02.75 bitrate=1971.8kbits/s speed=0.418x elapsed=0:02:30.08    frame= 3780 fps= 25 q=26.0 size=   15104KiB time=00:01:02.96 bitrate=1965.0kbits/s speed=0.418x elapsed=0:02:30.59    frame= 3794 fps= 25 q=26.0 size=   15104KiB time=00:01:03.20 bitrate=1957.8kbits/s speed=0.418x elapsed=0:02:31.12    frame= 3807 fps= 25 q=26.0 size=   15104KiB time=00:01:03.41 bitrate=1951.1kbits/s speed=0.418x elapsed=0:02:31.63    frame= 3821 fps= 25 q=26.0 size=   15104KiB time=00:01:03.65 bitrate=1943.9kbits/s speed=0.418x elapsed=0:02:32.14    frame= 3834 fps= 25 q=26.0 size=   15104KiB time=00:01:03.86 bitrate=1937.4kbits/s speed=0.418x elapsed=0:02:32.65    frame= 3847 fps= 25 q=26.0 size=   15360KiB time=00:01:04.08 bitrate=1963.5kbits/s speed=0.418x elapsed=0:02:33.18    frame= 3860 fps= 25 q=26.0 size=   15360KiB time=00:01:04.30 bitrate=1956.9kbits/s speed=0.418x elapsed=0:02:33.69    frame= 3873 fps= 25 q=26.0 size=   15360KiB time=00:01:04.51 bitrate=1950.3kbits/s speed=0.418x elapsed=0:02:34.20    frame= 3887 fps= 25 q=26.0 size=   15360KiB time=00:01:04.75 bitrate=1943.3kbits/s speed=0.418x elapsed=0:02:34.72    frame= 3899 fps= 25 q=26.0 size=   15360KiB time=00:01:04.95 bitrate=1937.3kbits/s speed=0.418x elapsed=0:02:35.23    frame= 3912 fps= 25 q=26.0 size=   15360KiB time=00:01:05.16 bitrate=1930.9kbits/s speed=0.418x elapsed=0:02:35.76    frame= 3924 fps= 25 q=26.0 size=   15360KiB time=00:01:05.36 bitrate=1925.0kbits/s speed=0.418x elapsed=0:02:36.27    frame= 3938 fps= 25 q=26.0 size=   15360KiB time=00:01:05.60 bitrate=1918.1kbits/s speed=0.418x elapsed=0:02:36.78    frame= 3951 fps= 25 q=26.0 size=   15360KiB time=00:01:05.81 bitrate=1911.8kbits/s speed=0.418x elapsed=0:02:37.29    frame= 3965 fps= 25 q=26.0 size=   15360KiB time=00:01:06.05 bitrate=1905.1kbits/s speed=0.418x elapsed=0:02:37.82    frame= 3979 fps= 25 q=26.0 size=   15360KiB time=00:01:06.28 bitrate=1898.4kbits/s speed=0.419x elapsed=0:02:38.33    frame= 3992 fps= 25 q=26.0 size=   15616KiB time=00:01:06.50 bitrate=1923.7kbits/s speed=0.419x elapsed=0:02:38.84    frame= 4006 fps= 25 q=26.0 size=   15616KiB time=00:01:06.73 bitrate=1917.0kbits/s speed=0.419x elapsed=0:02:39.37    frame= 4020 fps= 25 q=26.0 size=   15616KiB time=00:01:06.96 bitrate=1910.3kbits/s speed=0.419x elapsed=0:02:39.88    frame= 4034 fps= 25 q=26.0 size=   15616KiB time=00:01:07.20 bitrate=1903.7kbits/s speed=0.419x elapsed=0:02:40.39    frame= 4048 fps= 25 q=26.0 size=   15616KiB time=00:01:07.43 bitrate=1897.1kbits/s speed=0.419x elapsed=0:02:40.92    frame= 4062 fps= 25 q=26.0 size=   15616KiB time=00:01:07.66 bitrate=1890.5kbits/s speed=0.419x elapsed=0:02:41.44    frame= 4076 fps= 25 q=26.0 size=   15872KiB time=00:01:07.90 bitrate=1914.9kbits/s speed=0.419x elapsed=0:02:41.96    frame= 4090 fps= 25 q=26.0 size=   15872KiB time=00:01:08.13 bitrate=1908.4kbits/s speed=0.419x elapsed=0:02:42.46    frame= 4106 fps= 25 q=26.0 size=   15872KiB time=00:01:08.40 bitrate=1900.9kbits/s speed=0.42x elapsed=0:02:42.99    frame= 4121 fps= 25 q=26.0 size=   15872KiB time=00:01:08.65 bitrate=1894.0kbits/s speed=0.42x elapsed=0:02:43.50    frame= 4134 fps= 25 q=26.0 size=   15872KiB time=00:01:08.86 bitrate=1888.1kbits/s speed=0.42x elapsed=0:02:44.01    frame= 4148 fps= 25 q=26.0 size=   15872KiB time=00:01:09.10 bitrate=1881.7kbits/s speed=0.42x elapsed=0:02:44.54    frame= 4162 fps= 25 q=26.0 size=   15872KiB time=00:01:09.33 bitrate=1875.3kbits/s speed=0.42x elapsed=0:02:45.05    frame= 4175 fps= 25 q=26.0 size=   15872KiB time=00:01:09.55 bitrate=1869.5kbits/s speed=0.42x elapsed=0:02:45.56    frame= 4189 fps= 25 q=26.0 size=   15872KiB time=00:01:09.78 bitrate=1863.3kbits/s speed=0.42x elapsed=0:02:46.09    frame= 4203 fps= 25 q=26.0 size=   15872KiB time=00:01:10.01 bitrate=1857.0kbits/s speed=0.42x elapsed=0:02:46.60    frame= 4217 fps= 25 q=26.0 size=   15872KiB time=00:01:10.25 bitrate=1850.9kbits/s speed=0.42x elapsed=0:02:47.11    frame= 4230 fps= 25 q=26.0 size=   15872KiB time=00:01:10.46 bitrate=1845.2kbits/s speed=0.42x elapsed=0:02:47.62    frame= 4244 fps= 25 q=26.0 size=   15872KiB time=00:01:10.70 bitrate=1839.1kbits/s speed=0.42x elapsed=0:02:48.15    frame= 4258 fps= 25 q=26.0 size=   16128KiB time=00:01:10.93 bitrate=1862.6kbits/s speed=0.421x elapsed=0:02:48.66    frame= 4271 fps= 25 q=26.0 size=   16128KiB time=00:01:11.15 bitrate=1856.9kbits/s speed=0.421x elapsed=0:02:49.17    frame= 4285 fps= 25 q=26.0 size=   16128KiB time=00:01:11.38 bitrate=1850.9kbits/s speed=0.421x elapsed=0:02:49.69    frame= 4299 fps= 25 q=26.0 size=   16128KiB time=00:01:11.61 bitrate=1844.8kbits/s speed=0.421x elapsed=0:02:50.20    frame= 4312 fps= 25 q=26.0 size=   16128KiB time=00:01:11.83 bitrate=1839.3kbits/s speed=0.421x elapsed=0:02:50.72    frame= 4327 fps= 25 q=26.0 size=   16128KiB time=00:01:12.08 bitrate=1832.9kbits/s speed=0.421x elapsed=0:02:51.24    frame= 4341 fps= 25 q=26.0 size=   16128KiB time=00:01:12.31 bitrate=1827.0kbits/s speed=0.421x elapsed=0:02:51.75    frame= 4356 fps= 25 q=26.0 size=   16128KiB time=00:01:12.56 bitrate=1820.7kbits/s speed=0.421x elapsed=0:02:52.26    frame= 4371 fps= 25 q=26.0 size=   16128KiB time=00:01:12.81 bitrate=1814.4kbits/s speed=0.421x elapsed=0:02:52.79    frame= 4384 fps= 25 q=26.0 size=   16128KiB time=00:01:13.03 bitrate=1809.1kbits/s speed=0.421x elapsed=0:02:53.30    frame= 4398 fps= 25 q=26.0 size=   16128KiB time=00:01:13.26 bitrate=1803.3kbits/s speed=0.422x elapsed=0:02:53.81    frame= 4412 fps= 25 q=26.0 size=   16128KiB time=00:01:13.50 bitrate=1797.6kbits/s speed=0.422x elapsed=0:02:54.34    frame= 4425 fps= 25 q=26.0 size=   16128KiB time=00:01:13.71 bitrate=1792.3kbits/s speed=0.422x elapsed=0:02:54.85    frame= 4438 fps= 25 q=26.0 size=   16128KiB time=00:01:13.93 bitrate=1787.0kbits/s speed=0.422x elapsed=0:02:55.36    frame= 4452 fps= 25 q=26.0 size=   16128KiB time=00:01:14.16 bitrate=1781.4kbits/s speed=0.422x elapsed=0:02:55.89    frame= 4465 fps= 25 q=26.0 size=   16128KiB time=00:01:14.38 bitrate=1776.2kbits/s speed=0.422x elapsed=0:02:56.40    frame= 4478 fps= 25 q=26.0 size=   16128KiB time=00:01:14.60 bitrate=1771.1kbits/s speed=0.422x elapsed=0:02:56.91    frame= 4491 fps= 25 q=26.0 size=   16128KiB time=00:01:14.81 bitrate=1765.9kbits/s speed=0.422x elapsed=0:02:57.42    frame= 4505 fps= 25 q=26.0 size=   16384KiB time=00:01:15.05 bitrate=1788.4kbits/s speed=0.422x elapsed=0:02:57.94    frame= 4518 fps= 25 q=26.0 size=   16384KiB time=00:01:15.26 bitrate=1783.2kbits/s speed=0.422x elapsed=0:02:58.46    frame= 4531 fps= 25 q=26.0 size=   16384KiB time=00:01:15.48 bitrate=1778.1kbits/s speed=0.422x elapsed=0:02:58.97    frame= 4545 fps= 25 q=26.0 size=   16384KiB time=00:01:15.71 bitrate=1772.6kbits/s speed=0.422x elapsed=0:02:59.49    frame= 4558 fps= 25 q=26.0 size=   16384KiB time=00:01:15.93 bitrate=1767.6kbits/s speed=0.422x elapsed=0:03:00.00    frame= 4571 fps= 25 q=26.0 size=   16384KiB time=00:01:16.15 bitrate=1762.5kbits/s speed=0.422x elapsed=0:03:00.51    frame= 4585 fps= 25 q=26.0 size=   16384KiB time=00:01:16.38 bitrate=1757.2kbits/s speed=0.422x elapsed=0:03:01.04    frame= 4598 fps= 25 q=26.0 size=   16384KiB time=00:01:16.60 bitrate=1752.2kbits/s speed=0.422x elapsed=0:03:01.55    frame= 4611 fps= 25 q=26.0 size=   16384KiB time=00:01:16.81 bitrate=1747.3kbits/s speed=0.422x elapsed=0:03:02.06    frame= 4625 fps= 25 q=26.0 size=   16384KiB time=00:01:17.05 bitrate=1742.0kbits/s speed=0.422x elapsed=0:03:02.59    frame= 4638 fps= 25 q=26.0 size=   16384KiB time=00:01:17.26 bitrate=1737.1kbits/s speed=0.422x elapsed=0:03:03.10    frame= 4651 fps= 25 q=26.0 size=   16384KiB time=00:01:17.48 bitrate=1732.2kbits/s speed=0.422x elapsed=0:03:03.61    frame= 4665 fps= 25 q=26.0 size=   16384KiB time=00:01:17.71 bitrate=1727.0kbits/s speed=0.422x elapsed=0:03:04.13    frame= 4678 fps= 25 q=26.0 size=   16384KiB time=00:01:17.93 bitrate=1722.2kbits/s speed=0.422x elapsed=0:03:04.64    frame= 4691 fps= 25 q=26.0 size=   16384KiB time=00:01:18.15 bitrate=1717.4kbits/s speed=0.422x elapsed=0:03:05.15    frame= 4705 fps= 25 q=26.0 size=   16384KiB time=00:01:18.38 bitrate=1712.3kbits/s speed=0.422x elapsed=0:03:05.68    frame= 4718 fps= 25 q=26.0 size=   16384KiB time=00:01:18.60 bitrate=1707.6kbits/s speed=0.422x elapsed=0:03:06.19    frame= 4732 fps= 25 q=26.0 size=   16384KiB time=00:01:18.83 bitrate=1702.6kbits/s speed=0.422x elapsed=0:03:06.70    frame= 4745 fps= 25 q=26.0 size=   16384KiB time=00:01:19.05 bitrate=1697.9kbits/s speed=0.422x elapsed=0:03:07.23    frame= 4758 fps= 25 q=26.0 size=   16640KiB time=00:01:19.26 bitrate=1719.7kbits/s speed=0.422x elapsed=0:03:07.74    frame= 4771 fps= 25 q=26.0 size=   16640KiB time=00:01:19.48 bitrate=1715.0kbits/s speed=0.422x elapsed=0:03:08.25    frame= 4784 fps= 25 q=26.0 size=   16640KiB time=00:01:19.70 bitrate=1710.4kbits/s speed=0.422x elapsed=0:03:08.76    frame= 4797 fps= 25 q=26.0 size=   16640KiB time=00:01:19.91 bitrate=1705.7kbits/s speed=0.422x elapsed=0:03:09.29    frame= 4810 fps= 25 q=26.0 size=   16640KiB time=00:01:20.13 bitrate=1701.1kbits/s speed=0.422x elapsed=0:03:09.80    frame= 4823 fps= 25 q=26.0 size=   16640KiB time=00:01:20.35 bitrate=1696.5kbits/s speed=0.422x elapsed=0:03:10.31    frame= 4836 fps= 25 q=26.0 size=   16640KiB time=00:01:20.56 bitrate=1692.0kbits/s speed=0.422x elapsed=0:03:10.83    frame= 4849 fps= 25 q=26.0 size=   16640KiB time=00:01:20.78 bitrate=1687.4kbits/s speed=0.422x elapsed=0:03:11.35    frame= 4863 fps= 25 q=26.0 size=   16640KiB time=00:01:21.01 bitrate=1682.6kbits/s speed=0.422x elapsed=0:03:11.86    frame= 4879 fps= 25 q=26.0 size=   16640KiB time=00:01:21.28 bitrate=1677.0kbits/s speed=0.422x elapsed=0:03:12.38    frame= 4894 fps= 25 q=26.0 size=   16640KiB time=00:01:21.53 bitrate=1671.9kbits/s speed=0.423x elapsed=0:03:12.90    frame= 4909 fps= 25 q=26.0 size=   16640KiB time=00:01:21.78 bitrate=1666.8kbits/s speed=0.423x elapsed=0:03:13.41    frame= 4925 fps= 25 q=26.0 size=   16640KiB time=00:01:22.05 bitrate=1661.4kbits/s speed=0.423x elapsed=0:03:13.92    frame= 4940 fps= 25 q=26.0 size=   16640KiB time=00:01:22.30 bitrate=1656.3kbits/s speed=0.423x elapsed=0:03:14.44    frame= 4955 fps= 25 q=26.0 size=   16640KiB time=00:01:22.55 bitrate=1651.3kbits/s speed=0.423x elapsed=0:03:14.95    frame= 4970 fps= 25 q=26.0 size=   16640KiB time=00:01:22.80 bitrate=1646.3kbits/s speed=0.424x elapsed=0:03:15.47    frame= 4985 fps= 25 q=26.0 size=   16640KiB time=00:01:23.05 bitrate=1641.4kbits/s speed=0.424x elapsed=0:03:15.99    frame= 4999 fps= 25 q=26.0 size=   16640KiB time=00:01:23.28 bitrate=1636.8kbits/s speed=0.424x elapsed=0:03:16.50    frame= 5013 fps= 25 q=26.0 size=   16896KiB time=00:01:23.51 bitrate=1657.3kbits/s speed=0.424x elapsed=0:03:17.01    frame= 5027 fps= 25 q=26.0 size=   16896KiB time=00:01:23.75 bitrate=1652.7kbits/s speed=0.424x elapsed=0:03:17.54    frame= 5040 fps= 25 q=26.0 size=   16896KiB time=00:01:23.96 bitrate=1648.4kbits/s speed=0.424x elapsed=0:03:18.05    frame= 5055 fps= 25 q=26.0 size=   16896KiB time=00:01:24.21 bitrate=1643.5kbits/s speed=0.424x elapsed=0:03:18.56    frame= 5071 fps= 25 q=26.0 size=   16896KiB time=00:01:24.48 bitrate=1638.3kbits/s speed=0.424x elapsed=0:03:19.09    frame= 5086 fps= 25 q=26.0 size=   16896KiB time=00:01:24.73 bitrate=1633.5kbits/s speed=0.425x elapsed=0:03:19.60    frame= 5100 fps= 25 q=26.0 size=   16896KiB time=00:01:24.96 bitrate=1629.0kbits/s speed=0.425x elapsed=0:03:20.11    frame= 5115 fps= 25 q=26.0 size=   16896KiB time=00:01:25.21 bitrate=1624.2kbits/s speed=0.425x elapsed=0:03:20.63    frame= 5130 fps= 26 q=26.0 size=   16896KiB time=00:01:25.46 bitrate=1619.5kbits/s speed=0.425x elapsed=0:03:21.14    frame= 5145 fps= 26 q=26.0 size=   16896KiB time=00:01:25.71 bitrate=1614.8kbits/s speed=0.425x elapsed=0:03:21.65    frame= 5160 fps= 26 q=26.0 size=   16896KiB time=00:01:25.96 bitrate=1610.1kbits/s speed=0.425x elapsed=0:03:22.18    frame= 5173 fps= 26 q=26.0 size=   16896KiB time=00:01:26.18 bitrate=1606.0kbits/s speed=0.425x elapsed=0:03:22.69    frame= 5187 fps= 26 q=26.0 size=   16896KiB time=00:01:26.41 bitrate=1601.7kbits/s speed=0.425x elapsed=0:03:23.20    frame= 5201 fps= 26 q=26.0 size=   16896KiB time=00:01:26.65 bitrate=1597.4kbits/s speed=0.425x elapsed=0:03:23.73    frame= 5216 fps= 26 q=26.0 size=   16896KiB time=00:01:26.90 bitrate=1592.8kbits/s speed=0.425x elapsed=0:03:24.26    frame= 5229 fps= 26 q=26.0 size=   16896KiB time=00:01:27.11 bitrate=1588.8kbits/s speed=0.425x elapsed=0:03:24.77    frame= 5243 fps= 26 q=26.0 size=   16896KiB time=00:01:27.35 bitrate=1584.6kbits/s speed=0.426x elapsed=0:03:25.28    frame= 5257 fps= 26 q=26.0 size=   16896KiB time=00:01:27.58 bitrate=1580.4kbits/s speed=0.426x elapsed=0:03:25.81    frame= 5271 fps= 26 q=26.0 size=   16896KiB time=00:01:27.81 bitrate=1576.2kbits/s speed=0.426x elapsed=0:03:26.32    frame= 5285 fps= 26 q=26.0 size=   16896KiB time=00:01:28.05 bitrate=1572.0kbits/s speed=0.426x elapsed=0:03:26.83    frame= 5299 fps= 26 q=26.0 size=   16896KiB time=00:01:28.28 bitrate=1567.8kbits/s speed=0.426x elapsed=0:03:27.34    frame= 5313 fps= 26 q=26.0 size=   16896KiB time=00:01:28.51 bitrate=1563.7kbits/s speed=0.426x elapsed=0:03:27.87    frame= 5327 fps= 26 q=26.0 size=   16896KiB time=00:01:28.75 bitrate=1559.6kbits/s speed=0.426x elapsed=0:03:28.38    frame= 5340 fps= 26 q=26.0 size=   17152KiB time=00:01:28.96 bitrate=1579.4kbits/s speed=0.426x elapsed=0:03:28.89    frame= 5356 fps= 26 q=26.0 size=   17152KiB time=00:01:29.23 bitrate=1574.6kbits/s speed=0.426x elapsed=0:03:29.41    frame= 5370 fps= 26 q=26.0 size=   17152KiB time=00:01:29.46 bitrate=1570.5kbits/s speed=0.426x elapsed=0:03:29.92    frame= 5385 fps= 26 q=26.0 size=   17152KiB time=00:01:29.71 bitrate=1566.1kbits/s speed=0.426x elapsed=0:03:30.44    frame= 5400 fps= 26 q=26.0 size=   17152KiB time=00:01:29.96 bitrate=1561.8kbits/s speed=0.426x elapsed=0:03:30.96    frame= 5413 fps= 26 q=26.0 size=   17152KiB time=00:01:30.18 bitrate=1558.0kbits/s speed=0.426x elapsed=0:03:31.47    frame= 5426 fps= 26 q=26.0 size=   17152KiB time=00:01:30.40 bitrate=1554.3kbits/s speed=0.426x elapsed=0:03:31.98    frame= 5440 fps= 26 q=26.0 size=   17152KiB time=00:01:30.63 bitrate=1550.3kbits/s speed=0.426x elapsed=0:03:32.51    frame= 5453 fps= 26 q=26.0 size=   17152KiB time=00:01:30.85 bitrate=1546.6kbits/s speed=0.426x elapsed=0:03:33.02    frame= 5466 fps= 26 q=26.0 size=   17152KiB time=00:01:31.06 bitrate=1542.9kbits/s speed=0.426x elapsed=0:03:33.53    frame= 5480 fps= 26 q=26.0 size=   17152KiB time=00:01:31.30 bitrate=1539.0kbits/s speed=0.427x elapsed=0:03:34.04    frame= 5493 fps= 26 q=26.0 size=   17152KiB time=00:01:31.51 bitrate=1535.3kbits/s speed=0.427x elapsed=0:03:34.57    frame= 5507 fps= 26 q=26.0 size=   17152KiB time=00:01:31.75 bitrate=1531.4kbits/s speed=0.427x elapsed=0:03:35.08    frame= 5520 fps= 26 q=26.0 size=   17152KiB time=00:01:31.96 bitrate=1527.8kbits/s speed=0.427x elapsed=0:03:35.59    frame= 5541 fps= 26 q=26.0 size=   17152KiB time=00:01:32.31 bitrate=1522.0kbits/s speed=0.427x elapsed=0:03:36.12    frame= 5573 fps= 26 q=26.0 size=   17152KiB time=00:01:32.85 bitrate=1513.3kbits/s speed=0.429x elapsed=0:03:36.63    frame= 5606 fps= 26 q=26.0 size=   17152KiB time=00:01:33.40 bitrate=1504.4kbits/s speed=0.43x elapsed=0:03:37.14    frame= 5639 fps= 26 q=26.0 size=   17152KiB time=00:01:33.95 bitrate=1495.6kbits/s speed=0.432x elapsed=0:03:37.67    frame= 5672 fps= 26 q=26.0 size=   17152KiB time=00:01:34.50 bitrate=1486.9kbits/s speed=0.433x elapsed=0:03:38.19    frame= 5704 fps= 26 q=26.0 size=   17152KiB time=00:01:35.03 bitrate=1478.5kbits/s speed=0.435x elapsed=0:03:38.70    frame= 5735 fps= 26 q=26.0 size=   17152KiB time=00:01:35.55 bitrate=1470.5kbits/s speed=0.436x elapsed=0:03:39.22    frame= 5769 fps= 26 q=26.0 size=   17408KiB time=00:01:36.11 bitrate=1483.7kbits/s speed=0.437x elapsed=0:03:39.74    frame= 5801 fps= 26 q=26.0 size=   17408KiB time=00:01:36.65 bitrate=1475.5kbits/s speed=0.439x elapsed=0:03:40.25    frame= 5830 fps= 26 q=26.0 size=   17408KiB time=00:01:37.13 bitrate=1468.2kbits/s speed=0.44x elapsed=0:03:40.76    frame= 5844 fps= 26 q=26.0 size=   17408KiB time=00:01:37.36 bitrate=1464.6kbits/s speed=0.44x elapsed=0:03:41.29    frame= 5857 fps= 26 q=26.0 size=   17408KiB time=00:01:37.58 bitrate=1461.4kbits/s speed=0.44x elapsed=0:03:41.80    frame= 5870 fps= 26 q=26.0 size=   17408KiB time=00:01:37.80 bitrate=1458.1kbits/s speed=0.44x elapsed=0:03:42.31    frame= 5883 fps= 26 q=26.0 size=   17408KiB time=00:01:38.01 bitrate=1454.9kbits/s speed=0.44x elapsed=0:03:42.84    frame= 5897 fps= 26 q=26.0 size=   17408KiB time=00:01:38.25 bitrate=1451.5kbits/s speed=0.44x elapsed=0:03:43.35    frame= 5910 fps= 26 q=26.0 size=   17408KiB time=00:01:38.46 bitrate=1448.3kbits/s speed=0.44x elapsed=0:03:43.86    frame= 5924 fps= 26 q=26.0 size=   17408KiB time=00:01:38.70 bitrate=1444.9kbits/s speed=0.44x elapsed=0:03:44.39    frame= 5937 fps= 26 q=26.0 size=   17664KiB time=00:01:38.91 bitrate=1462.9kbits/s speed=0.44x elapsed=0:03:44.89    frame= 5977 fps= 27 q=26.0 size=   17920KiB time=00:01:39.58 bitrate=1474.2kbits/s speed=0.442x elapsed=0:03:45.40    [mp4 @ 000002f9689b5e40] Starting second pass: moving the moov atom to the beginning of the file
[out#0/mp4 @ 000002f96895c880] video:18078KiB audio:0KiB subtitle:0KiB other streams:0KiB global headers:0KiB muxing overhead: 0.307538%
frame= 6000 fps= 27 q=-1.0 Lsize=   18134KiB time=00:01:39.96 bitrate=1486.0kbits/s speed=0.443x elapsed=0:03:45.52    
[libx264 @ 000002f9689b6e80] frame I:25    Avg QP: 8.47  size:223429
[libx264 @ 000002f9689b6e80] frame P:3018  Avg QP:18.28  size:  3879
[libx264 @ 000002f9689b6e80] frame B:2957  Avg QP:17.73  size:   413
[libx264 @ 000002f9689b6e80] consecutive B-frames: 32.3%  3.0%  8.8% 55.9%
[libx264 @ 000002f9689b6e80] mb I  I16..4: 25.5% 44.3% 30.2%
[libx264 @ 000002f9689b6e80] mb P  I16..4:  0.4%  0.3%  0.1%  P16..4:  6.2%  0.2%  0.4%  0.0%  0.0%    skip:92.4%
[libx264 @ 000002f9689b6e80] mb B  I16..4:  0.3%  0.0%  0.0%  B16..8:  0.2%  0.1%  0.0%  direct: 2.0%  skip:97.3%  L0:53.7% L1:39.1% BI: 7.2%
[libx264 @ 000002f9689b6e80] 8x8 transform intra:33.7% inter:48.9%
[libx264 @ 000002f9689b6e80] coded y,uvDC,uvAC intra: 24.0% 20.7% 13.8% inter: 1.4% 3.1% 0.6%
[libx264 @ 000002f9689b6e80] i16 v,h,dc,p: 88%  7%  4%  1%
[libx264 @ 000002f9689b6e80] i8 v,h,dc,ddl,ddr,vr,hd,vl,hu: 36% 14% 29%  4%  4%  3%  3%  3%  3%
[libx264 @ 000002f9689b6e80] i4 v,h,dc,ddl,ddr,vr,hd,vl,hu: 39% 19% 11%  6%  7%  4%  4%  5%  5%
[libx264 @ 000002f9689b6e80] i8c dc,h,v,p: 86%  7%  6%  2%
[libx264 @ 000002f9689b6e80] Weighted P-Frames: Y:2.6% UV:2.3%
[libx264 @ 000002f9689b6e80] ref P L0: 88.2% 11.8%
[libx264 @ 000002f9689b6e80] ref B L0: 93.3%  6.7%
[libx264 @ 000002f9689b6e80] ref B L1: 96.7%  3.3%
[libx264 @ 000002f9689b6e80] kb/s:1480.92
